<svg xmlns="http://www.w3.org/2000/svg" version="1.1" xmlns:xlink="http://www.w3.org/1999/xlink" xmlns:svgjs="http://svgjs.dev/svgjs" viewBox="0 0 800 800"><defs><linearGradient x1="50%" y1="0%" x2="50%" y2="100%" id="nnneon-grad"><stop stop-color="hsl(313, 100%, 50%)" stop-opacity="1" offset="0%"></stop><stop stop-color="hsl(168, 100%, 50%)" stop-opacity="1" offset="100%"></stop></linearGradient><filter id="nnneon-filter" x="-100%" y="-100%" width="400%" height="400%" filterUnits="objectBoundingBox" primitiveUnits="userSpaceOnUse" color-interpolation-filters="sRGB">
	<feGaussianBlur stdDeviation="17 8" x="0%" y="0%" width="100%" height="100%" in="SourceGraphic" edgeMode="none" result="blur"></feGaussianBlur></filter><filter id="nnneon-filter2" x="-100%" y="-100%" width="400%" height="400%" filterUnits="objectBoundingBox" primitiveUnits="userSpaceOnUse" color-interpolation-filters="sRGB">
	<feGaussianBlur stdDeviation="10 17" x="0%" y="0%" width="100%" height="100%" in="SourceGraphic" edgeMode="none" result="blur"></feGaussianBlur></filter></defs><g stroke-width="4" stroke="url(#nnneon-grad)" fill="none" transform="rotate(51, 400, 400)"><path d="M390.7336633477416 276.5469177361747C394.5299295591632 268.87581335470736 405.4700409560212 268.87581335470736 409.26630716744273 276.5469177361747L526.914375266881 514.2829200186446C530.314680160499 521.1538310320182 525.3150223722544 529.2064229494372 517.6490871985914 529.2064229494372H282.350883316593C274.68494814292995 529.2064229494372 269.68529035468526 521.1538310320182 273.0855952483033 514.2829200186446L390.7336633477416 276.5469177361747Z " filter="url(#nnneon-filter)"></path><path d="M402.7336633477416 276.5469177361747C406.5299295591632 268.87581335470736 417.4700409560212 268.87581335470736 421.26630716744273 276.5469177361747L538.914375266881 514.2829200186446C542.314680160499 521.1538310320182 537.3150223722544 529.2064229494372 529.6490871985914 529.2064229494372H294.350883316593C286.68494814292995 529.2064229494372 281.68529035468526 521.1538310320182 285.0855952483033 514.2829200186446L402.7336633477416 276.5469177361747Z " filter="url(#nnneon-filter2)" opacity="0.25"></path><path d="M378.7336633477416 276.5469177361747C382.5299295591632 268.87581335470736 393.4700409560212 268.87581335470736 397.26630716744273 276.5469177361747L514.914375266881 514.2829200186446C518.314680160499 521.1538310320182 513.3150223722544 529.2064229494372 505.64908719859136 529.2064229494372H270.350883316593C262.68494814292995 529.2064229494372 257.68529035468526 521.1538310320182 261.0855952483033 514.2829200186446L378.7336633477416 276.5469177361747Z " filter="url(#nnneon-filter2)" opacity="0.25"></path><path d="M390.7336633477416 276.5469177361747C394.5299295591632 268.87581335470736 405.4700409560212 268.87581335470736 409.26630716744273 276.5469177361747L526.914375266881 514.2829200186446C530.314680160499 521.1538310320182 525.3150223722544 529.2064229494372 517.6490871985914 529.2064229494372H282.350883316593C274.68494814292995 529.2064229494372 269.68529035468526 521.1538310320182 273.0855952483033 514.2829200186446L390.7336633477416 276.5469177361747Z "></path></g></svg>